<?xml version="1.0" encoding="iso-8859-1"?>
<!-- Generator: Adobe Illustrator 16.0.0, SVG Export Plug-In . SVG Version: 6.00 Build 0)  -->
<!DOCTYPE svg PUBLIC "-//W3C//DTD SVG 1.1//EN" "http://www.w3.org/Graphics/SVG/1.1/DTD/svg11.dtd">
<svg version="1.1" id="Capa_1" xmlns="http://www.w3.org/2000/svg" xmlns:xlink="http://www.w3.org/1999/xlink" x="0px" y="0px"
	 width="533.333px" height="533.333px" viewBox="0 0 533.333 533.333" style="enable-background:new 0 0 533.333 533.333;"
	 xml:space="preserve">
<g>
	<path d="M266.667,82.668L87.066,466.667h359.202L266.667,82.668z M266.667,0L266.667,0c11.495,0,22.99,7.751,31.709,23.254
		l227.642,453.704c17.443,31.008,2.604,56.375-32.968,56.375H40.284c-35.575,0-50.411-25.368-32.971-56.375L234.957,23.254
		C243.677,7.751,255.172,0,266.667,0z M233.333,400c0,18.409,14.924,33.333,33.333,33.333c18.41,0,33.333-14.924,33.333-33.333
		c0-18.41-14.924-33.333-33.333-33.333C248.258,366.667,233.333,381.59,233.333,400z M266.667,200
		C285.076,200,300,214.924,300,233.333l-10.417,100H243.75l-10.417-100C233.333,214.924,248.258,200,266.667,200z"/>
</g>
<g>
</g>
<g>
</g>
<g>
</g>
<g>
</g>
<g>
</g>
<g>
</g>
<g>
</g>
<g>
</g>
<g>
</g>
<g>
</g>
<g>
</g>
<g>
</g>
<g>
</g>
<g>
</g>
<g>
</g>
</svg>
